<svg xmlns="http://www.w3.org/2000/svg" viewBox="0 0 14 14" fill="none" height="14" width="14" aria-hidden="true">
  <path
    fill="#3b82f6"
    d="M3.66 0.47C4.73 0.35 5.85 0.25 7 0.25s2.27 0.1 3.34 0.22c1.67 0.19 3.02 1.53 3.2 3.2 0.11 1.07 0.21 2.18 0.21 3.33s-0.1 2.25 -0.21 3.32c-0.18 1.68 -1.53 3.02 -3.2 3.2 -1.07 0.13 -2.19 0.23 -3.34 0.23s-2.27 -0.1 -3.34 -0.23c-1.67 -0.18 -3.02 -1.52 -3.2 -3.2C0.35 9.25 0.25 8.14 0.25 7s0.1 -2.26 0.21 -3.33c0.18 -1.67 1.53 -3.01 3.2 -3.2Z"
  />
  <path
    fill="#ffffff"
    d="M6.72 3.05c0.1 -0.29 0.51 -0.29 0.62 0l0.42 1.14c0.22 0.6 0.69 1.07 1.29 1.29l1.14 0.42c0.29 0.11 0.29 0.52 0 0.62l-1.14 0.42c-0.6 0.22 -1.07 0.69 -1.29 1.29l-0.42 1.14c-0.11 0.29 -0.52 0.29 -0.62 0L6.3 8.23c-0.22 -0.6 -0.69 -1.07 -1.29 -1.29l-1.14 -0.42c-0.29 -0.1 -0.29 -0.51 0 -0.62l1.14 -0.42c0.6 -0.22 1.07 -0.69 1.29 -1.29l0.42 -1.14Z"
  />
</svg>
