<svg width="1600" height="400" viewBox="0 0 1600 400" fill="none" xmlns="http://www.w3.org/2000/svg">
<g clip-path="url(#clip0_91_5)">
<path d="M341.8 176.2C341.8 232.6 295.8 278.6 239.4 278.6C225.8 278.6 212.6 275.8 200.6 271V308.2C200.6 325.4 186.6 339.8 169 339.8H166.2C150.2 339 137 325.8 137 309.4V107C137 90.6 150.6 77 167 77C176.2 77 183.8 80.6 189.4 86.6C204.2 78.6 221.4 73.8 239.4 73.8C295.8 73.8 341.8 119.8 341.8 176.2ZM278.2 176.2C278.2 154.6 261 137.4 239.4 137.4C217.8 137.4 200.6 154.6 200.6 176.2C200.6 197.8 217.8 215 239.4 215C261 215 278.2 197.8 278.2 176.2ZM534.753 77C551.153 77 564.753 90.6 564.753 107V247C564.753 263.4 551.153 277 534.753 277C525.953 277 517.953 273 512.353 267.4C497.153 275.4 480.753 280.2 462.353 280.2C405.953 280.2 359.953 234.2 359.953 177.8C359.953 121.4 405.953 75.4 462.353 75.4C479.953 75.4 496.353 80.2 511.553 88.2C517.153 81 525.153 77 534.753 77ZM462.353 216.6C483.953 216.6 501.153 199.4 501.153 177.8C501.153 156.2 483.953 139 462.353 139C440.753 139 423.553 156.2 423.553 177.8C423.553 199.4 440.753 216.6 462.353 216.6ZM767.566 77C783.966 77 797.566 90.6 797.566 107V247C797.566 263.4 783.966 277 767.566 277C758.766 277 750.766 273 745.166 267.4C729.966 275.4 713.566 280.2 695.166 280.2C638.766 280.2 592.766 234.2 592.766 177.8C592.766 121.4 638.766 75.4 695.166 75.4C712.766 75.4 729.166 80.2 744.366 88.2C749.966 81 757.966 77 767.566 77ZM695.166 216.6C716.766 216.6 733.966 199.4 733.966 177.8C733.966 156.2 716.766 139 695.166 139C673.566 139 656.366 156.2 656.366 177.8C656.366 199.4 673.566 216.6 695.166 216.6ZM1034.38 176.2C1034.38 232.6 988.378 278.6 931.978 278.6C918.378 278.6 905.178 275.8 893.178 271V308.2C893.178 325.4 879.178 339.8 861.578 339.8H858.778C842.778 339 829.578 325.8 829.578 309.4V107C829.578 90.6 843.178 77 859.578 77C868.778 77 876.378 80.6 881.978 86.6C896.778 78.6 913.978 73.8 931.978 73.8C988.378 73.8 1034.38 119.8 1034.38 176.2ZM970.778 176.2C970.778 154.6 953.578 137.4 931.978 137.4C910.378 137.4 893.178 154.6 893.178 176.2C893.178 197.8 910.378 215 931.978 215C953.578 215 970.778 197.8 970.778 176.2ZM1227.33 77C1243.73 77 1257.33 90.6 1257.33 107V247C1257.33 263.4 1243.73 277 1227.33 277C1218.53 277 1210.53 273 1204.93 267.4C1189.73 275.4 1173.33 280.2 1154.93 280.2C1098.53 280.2 1052.53 234.2 1052.53 177.8C1052.53 121.4 1098.53 75.4 1154.93 75.4C1172.53 75.4 1188.93 80.2 1204.13 88.2C1209.73 81 1217.73 77 1227.33 77ZM1154.93 216.6C1176.53 216.6 1193.73 199.4 1193.73 177.8C1193.73 156.2 1176.53 139 1154.93 139C1133.33 139 1116.13 156.2 1116.13 177.8C1116.13 199.4 1133.33 216.6 1154.93 216.6ZM1377.34 75C1426.14 75 1465.34 114.6 1465.34 163V245.4C1465.34 262.6 1451.34 277 1433.74 277C1416.14 277 1401.74 262.6 1401.74 245.4V163C1401.74 149.4 1390.94 138.6 1377.34 138.6C1363.74 138.6 1352.54 149.4 1352.54 163V245.4C1352.54 262.6 1338.54 277 1320.94 277C1303.34 277 1289.34 262.6 1289.34 245.4V107.4C1289.34 90.6 1302.54 77 1319.34 77C1326.54 77 1333.34 79.8 1338.54 83.8C1350.14 78.2 1363.34 75 1377.34 75Z" fill="#3B82F6"/>
</g>
<defs>
<clipPath id="clip0_91_5">
<rect width="1600" height="400" fill="white"/>
</clipPath>
</defs>
</svg>
